<svg width="0" height="0" class="hidden">
  <symbol xmlns="http://www.w3.org/2000/svg" viewBox="0 0 512 512" id="backward-solid">
    <path d="M459.5 440.6c9.5 7.9 22.8 9.7 34.1 4.4s18.4-16.6 18.4-29l0-320c0-12.4-7.2-23.7-18.4-29s-24.5-3.6-34.1 4.4L288 214.3l0 41.7 0 41.7L459.5 440.6zM256 352l0-96 0-128 0-32c0-12.4-7.2-23.7-18.4-29s-24.5-3.6-34.1 4.4l-192 160C4.2 237.5 0 246.5 0 256s4.2 18.5 11.5 24.6l192 160c9.5 7.9 22.8 9.7 34.1 4.4s18.4-16.6 18.4-29l0-64z"></path>
  </symbol>
  <symbol xmlns="http://www.w3.org/2000/svg" viewBox="0 0 496 512" id="github-brands-solid">
    <path d="M165.9 397.4c0 2-2.3 3.6-5.2 3.6-3.3 .3-5.6-1.3-5.6-3.6 0-2 2.3-3.6 5.2-3.6 3-.3 5.6 1.3 5.6 3.6zm-31.1-4.5c-.7 2 1.3 4.3 4.3 4.9 2.6 1 5.6 0 6.2-2s-1.3-4.3-4.3-5.2c-2.6-.7-5.5 .3-6.2 2.3zm44.2-1.7c-2.9 .7-4.9 2.6-4.6 4.9 .3 2 2.9 3.3 5.9 2.6 2.9-.7 4.9-2.6 4.6-4.6-.3-1.9-3-3.2-5.9-2.9zM244.8 8C106.1 8 0 113.3 0 252c0 110.9 69.8 205.8 169.5 239.2 12.8 2.3 17.3-5.6 17.3-12.1 0-6.2-.3-40.4-.3-61.4 0 0-70 15-84.7-29.8 0 0-11.4-29.1-27.8-36.6 0 0-22.9-15.7 1.6-15.4 0 0 24.9 2 38.6 25.8 21.9 38.6 58.6 27.5 72.9 20.9 2.3-16 8.8-27.1 16-33.7-55.9-6.2-112.3-14.3-112.3-110.5 0-27.5 7.6-41.3 23.6-58.9-2.6-6.5-11.1-33.3 2.6-67.9 20.9-6.5 69 27 69 27 20-5.6 41.5-8.5 62.8-8.5s42.8 2.9 62.8 8.5c0 0 48.1-33.6 69-27 13.7 34.7 5.2 61.4 2.6 67.9 16 17.7 25.8 31.5 25.8 58.9 0 96.5-58.9 104.2-114.8 110.5 9.2 7.9 17 22.9 17 46.4 0 33.7-.3 75.4-.3 83.6 0 6.5 4.6 14.4 17.3 12.1C428.2 457.8 496 362.9 496 252 496 113.3 383.5 8 244.8 8zM97.2 352.9c-1.3 1-1 3.3 .7 5.2 1.6 1.6 3.9 2.3 5.2 1 1.3-1 1-3.3-.7-5.2-1.6-1.6-3.9-2.3-5.2-1zm-10.8-8.1c-.7 1.3 .3 2.9 2.3 3.9 1.6 1 3.6 .7 4.3-.7 .7-1.3-.3-2.9-2.3-3.9-2-.6-3.6-.3-4.3 .7zm32.4 35.6c-1.6 1.3-1 4.3 1.3 6.2 2.3 2.3 5.2 2.6 6.5 1 1.3-1.3 .7-4.3-1.3-6.2-2.2-2.3-5.2-2.6-6.5-1zm-11.4-14.7c-1.6 1-1.6 3.6 0 5.9 1.6 2.3 4.3 3.3 5.6 2.3 1.6-1.3 1.6-3.9 0-6.2-1.4-2.3-4-3.3-5.6-2z"></path>
  </symbol>
  <symbol fill="none" xmlns="http://www.w3.org/2000/svg" viewBox="0 0 64 64" id="rs-icon">
    <g clip-path="url(#clip0_5701_38384)">
      <circle cx="32" cy="32" r="32" fill="black"></circle>
      <path fill-rule="evenodd" clip-rule="evenodd" d="M13 21.5095V42.5L19.3067 42.4621V33.9474C20.0567 33.9474 20.7616 33.9775 21.4049 34.4267C21.8946 34.8785 22.2838 35.4335 22.546 36.054L25.9202 42.4621H33C31.5957 39.6675 30.4706 36.1327 28.0552 34.0104C27.5455 33.6749 26.9919 33.4158 26.411 33.241C27.1873 33.0779 27.9357 32.7973 28.6319 32.4084C30.3855 31.3375 31.3915 29.3808 31.3436 27.3374C31.3798 26.1328 31.0495 24.9466 30.3988 23.9441C28.9256 21.6883 25.9337 21.4213 23.4663 21.5095H13ZM21.9939 30.0116H19.3313V25.6975H22.1043C23.4807 25.5594 25.1814 26.1754 25.0859 27.8041C25.1499 29.5621 23.3647 29.9127 21.9939 30.0116Z" fill="#FFB749"></path>
      <path d="M39.4768 35.089L33 35.4666C33.1262 37.3671 34.0021 39.16 35.4636 40.5088C36.9117 41.8323 39.5076 42.4941 43.2515 42.4941C46.3564 42.5823 49.9058 41.8146 51.821 39.1569C52.5929 38.0934 53.0033 36.8427 52.9998 35.564C53.0217 33.1848 51.4339 31.2297 49.3044 30.3147C47.2632 29.4766 45.1198 28.8674 42.9204 28.5C42.1107 28.41 41.3327 28.1563 40.6423 27.757C39.9039 27.2597 40.078 26.2272 40.735 25.7596C42.6084 24.5207 45.6299 25.5545 45.8608 27.9032L52.2845 27.5621C52.1703 25.768 51.1844 24.0545 49.6356 22.9583C47.6987 21.8887 45.4532 21.3874 43.1986 21.5212C41.3493 21.4527 39.5037 21.7218 37.7682 22.3128C35.6082 23.1125 33.829 25.064 33.8344 27.4525C33.7931 28.9377 34.5158 30.4088 35.755 31.3621C37.6454 32.6238 39.8325 33.4582 42.139 33.798C43.3833 33.9637 44.5727 34.3795 45.6224 35.0159C46.5878 35.7309 46.5807 37.167 45.5959 37.8903C44.5078 38.6532 42.9034 38.7416 41.6818 38.2468C40.3717 37.716 39.6048 36.4784 39.4768 35.089Z" fill="#FFB749"></path>
    </g>
    <defs>
      <clipPath id="clip0_5701_38384">
        <rect width="64" height="64" fill="white"></rect>
      </clipPath>
    </defs>
  </symbol>
  <symbol xmlns="http://www.w3.org/2000/svg" viewBox="0 0 512 512" id="forward-solid">
    <path d="M52.5 440.6c-9.5 7.9-22.8 9.7-34.1 4.4S0 428.4 0 416L0 96C0 83.6 7.2 72.3 18.4 67s24.5-3.6 34.1 4.4L224 214.3l0 41.7 0 41.7L52.5 440.6zM256 352l0-96 0-128 0-32c0-12.4 7.2-23.7 18.4-29s24.5-3.6 34.1 4.4l192 160c7.3 6.1 11.5 15.1 11.5 24.6s-4.2 18.5-11.5 24.6l-192 160c-9.5 7.9-22.8 9.7-34.1 4.4s-18.4-16.6-18.4-29l0-64z"></path>
  </symbol>
  <symbol xmlns="http://www.w3.org/2000/svg" viewBox="0 0 512 512" id="circle-pause-solid">
    <path d="M256 512A256 256 0 1 0 256 0a256 256 0 1 0 0 512zM224 192l0 128c0 17.7-14.3 32-32 32s-32-14.3-32-32l0-128c0-17.7 14.3-32 32-32s32 14.3 32 32zm128 0l0 128c0 17.7-14.3 32-32 32s-32-14.3-32-32l0-128c0-17.7 14.3-32 32-32s32 14.3 32 32z"></path>
  </symbol>
  <symbol xmlns="http://www.w3.org/2000/svg" viewBox="0 0 512 512" id="circle-play-solid">
    <path d="M0 256a256 256 0 1 1 512 0A256 256 0 1 1 0 256zM188.3 147.1c-7.6 4.2-12.3 12.3-12.3 20.9l0 176c0 8.7 4.7 16.7 12.3 20.9s16.8 4.1 24.3-.5l144-88c7.1-4.4 11.5-12.1 11.5-20.5s-4.4-16.1-11.5-20.5l-144-88c-7.4-4.5-16.7-4.7-24.3-.5z"></path>
  </symbol>
  <symbol xmlns="http://www.w3.org/2000/svg" viewBox="0 0 512 512" id="repeat-solid">
    <path d="M0 224c0 17.7 14.3 32 32 32s32-14.3 32-32c0-53 43-96 96-96l160 0 0 32c0 12.9 7.8 24.6 19.8 29.6s25.7 2.2 34.9-6.9l64-64c12.5-12.5 12.5-32.8 0-45.3l-64-64c-9.2-9.2-22.9-11.9-34.9-6.9S320 19.1 320 32l0 32L160 64C71.6 64 0 135.6 0 224zm512 64c0-17.7-14.3-32-32-32s-32 14.3-32 32c0 53-43 96-96 96l-160 0 0-32c0-12.9-7.8-24.6-19.8-29.6s-25.7-2.2-34.9 6.9l-64 64c-12.5 12.5-12.5 32.8 0 45.3l64 64c9.2 9.2 22.9 11.9 34.9 6.9s19.8-16.6 19.8-29.6l0-32 160 0c88.4 0 160-71.6 160-160z"></path>
  </symbol>
  <symbol xmlns="http://www.w3.org/2000/svg" viewBox="0 0 512 512" id="shuffle-solid">
    <path d="M403.8 34.4c12-5 25.7-2.2 34.9 6.9l64 64c6 6 9.4 14.1 9.4 22.6s-3.4 16.6-9.4 22.6l-64 64c-9.2 9.2-22.9 11.9-34.9 6.9s-19.8-16.6-19.8-29.6l0-32-32 0c-10.1 0-19.6 4.7-25.6 12.8L284 229.3 244 176l31.2-41.6C293.3 110.2 321.8 96 352 96l32 0 0-32c0-12.9 7.8-24.6 19.8-29.6zM164 282.7L204 336l-31.2 41.6C154.7 401.8 126.2 416 96 416l-64 0c-17.7 0-32-14.3-32-32s14.3-32 32-32l64 0c10.1 0 19.6-4.7 25.6-12.8L164 282.7zm274.6 188c-9.2 9.2-22.9 11.9-34.9 6.9s-19.8-16.6-19.8-29.6l0-32-32 0c-30.2 0-58.7-14.2-76.8-38.4L121.6 172.8c-6-8.1-15.5-12.8-25.6-12.8l-64 0c-17.7 0-32-14.3-32-32s14.3-32 32-32l64 0c30.2 0 58.7 14.2 76.8 38.4L326.4 339.2c6 8.1 15.5 12.8 25.6 12.8l32 0 0-32c0-12.9 7.8-24.6 19.8-29.6s25.7-2.2 34.9 6.9l64 64c6 6 9.4 14.1 9.4 22.6s-3.4 16.6-9.4 22.6l-64 64z"></path>
  </symbol>
  <symbol xmlns="http://www.w3.org/2000/svg" viewBox="0 0 448 512" id="volume-low-solid">
    <path d="M301.1 34.8C312.6 40 320 51.4 320 64l0 384c0 12.6-7.4 24-18.9 29.2s-25 3.1-34.4-5.3L131.8 352 64 352c-35.3 0-64-28.7-64-64l0-64c0-35.3 28.7-64 64-64l67.8 0L266.7 40.1c9.4-8.4 22.9-10.4 34.4-5.3zM412.6 181.5C434.1 199.1 448 225.9 448 256s-13.9 56.9-35.4 74.5c-10.3 8.4-25.4 6.8-33.8-3.5s-6.8-25.4 3.5-33.8C393.1 284.4 400 271 400 256s-6.9-28.4-17.7-37.3c-10.3-8.4-11.8-23.5-3.5-33.8s23.5-11.8 33.8-3.5z"></path>
  </symbol>
  <symbol xmlns="http://www.w3.org/2000/svg" viewBox="0 0 576 512" id="volume-xmark-solid">
    <path d="M301.1 34.8C312.6 40 320 51.4 320 64l0 384c0 12.6-7.4 24-18.9 29.2s-25 3.1-34.4-5.3L131.8 352 64 352c-35.3 0-64-28.7-64-64l0-64c0-35.3 28.7-64 64-64l67.8 0L266.7 40.1c9.4-8.4 22.9-10.4 34.4-5.3zM425 167l55 55 55-55c9.4-9.4 24.6-9.4 33.9 0s9.4 24.6 0 33.9l-55 55 55 55c9.4 9.4 9.4 24.6 0 33.9s-24.6 9.4-33.9 0l-55-55-55 55c-9.4 9.4-24.6 9.4-33.9 0s-9.4-24.6 0-33.9l55-55-55-55c-9.4-9.4-9.4-24.6 0-33.9s24.6-9.4 33.9 0z"></path>
  </symbol>
</svg>