<svg width="0" height="0" class="hidden">
  <symbol xmlns="http://www.w3.org/2000/svg" viewBox="0 0 512 512" id="backward-solid">
    <path d="M459.5 440.6c9.5 7.9 22.8 9.7 34.1 4.4s18.4-16.6 18.4-29l0-320c0-12.4-7.2-23.7-18.4-29s-24.5-3.6-34.1 4.4L288 214.3l0 41.7 0 41.7L459.5 440.6zM256 352l0-96 0-128 0-32c0-12.4-7.2-23.7-18.4-29s-24.5-3.6-34.1 4.4l-192 160C4.2 237.5 0 246.5 0 256s4.2 18.5 11.5 24.6l192 160c9.5 7.9 22.8 9.7 34.1 4.4s18.4-16.6 18.4-29l0-64z"></path>
  </symbol>
  <symbol xmlns="http://www.w3.org/2000/svg" viewBox="0 0 512 512" id="forward-solid">
    <path d="M52.5 440.6c-9.5 7.9-22.8 9.7-34.1 4.4S0 428.4 0 416L0 96C0 83.6 7.2 72.3 18.4 67s24.5-3.6 34.1 4.4L224 214.3l0 41.7 0 41.7L52.5 440.6zM256 352l0-96 0-128 0-32c0-12.4 7.2-23.7 18.4-29s24.5-3.6 34.1 4.4l192 160c7.3 6.1 11.5 15.1 11.5 24.6s-4.2 18.5-11.5 24.6l-192 160c-9.5 7.9-22.8 9.7-34.1 4.4s-18.4-16.6-18.4-29l0-64z"></path>
  </symbol>
  <symbol xmlns="http://www.w3.org/2000/svg" viewBox="0 0 384 512" id="play-solid">
    <path d="M73 39c-14.8-9.1-33.4-9.4-48.5-.9S0 62.6 0 80L0 432c0 17.4 9.4 33.4 24.5 41.9s33.7 8.1 48.5-.9L361 297c14.3-8.7 23-24.2 23-41s-8.7-32.2-23-41L73 39z"></path>
  </symbol>
  <symbol xmlns="http://www.w3.org/2000/svg" viewBox="0 0 384 512" id="stop-solid">
    <path d="M0 128C0 92.7 28.7 64 64 64H320c35.3 0 64 28.7 64 64V384c0 35.3-28.7 64-64 64H64c-35.3 0-64-28.7-64-64V128z"></path>
  </symbol>
  <symbol xmlns="http://www.w3.org/2000/svg" viewBox="0 0 448 512" id="volume-low-solid">
    <path d="M301.1 34.8C312.6 40 320 51.4 320 64l0 384c0 12.6-7.4 24-18.9 29.2s-25 3.1-34.4-5.3L131.8 352 64 352c-35.3 0-64-28.7-64-64l0-64c0-35.3 28.7-64 64-64l67.8 0L266.7 40.1c9.4-8.4 22.9-10.4 34.4-5.3zM412.6 181.5C434.1 199.1 448 225.9 448 256s-13.9 56.9-35.4 74.5c-10.3 8.4-25.4 6.8-33.8-3.5s-6.8-25.4 3.5-33.8C393.1 284.4 400 271 400 256s-6.9-28.4-17.7-37.3c-10.3-8.4-11.8-23.5-3.5-33.8s23.5-11.8 33.8-3.5z"></path>
  </symbol>
  <symbol xmlns="http://www.w3.org/2000/svg" viewBox="0 0 576 512" id="volume-xmark-solid">
    <path d="M301.1 34.8C312.6 40 320 51.4 320 64l0 384c0 12.6-7.4 24-18.9 29.2s-25 3.1-34.4-5.3L131.8 352 64 352c-35.3 0-64-28.7-64-64l0-64c0-35.3 28.7-64 64-64l67.8 0L266.7 40.1c9.4-8.4 22.9-10.4 34.4-5.3zM425 167l55 55 55-55c9.4-9.4 24.6-9.4 33.9 0s9.4 24.6 0 33.9l-55 55 55 55c9.4 9.4 9.4 24.6 0 33.9s-24.6 9.4-33.9 0l-55-55-55 55c-9.4 9.4-24.6 9.4-33.9 0s-9.4-24.6 0-33.9l55-55-55-55c-9.4-9.4-9.4-24.6 0-33.9s24.6-9.4 33.9 0z"></path>
  </symbol>
</svg>